<?xml version="1.0" encoding="UTF-8" standalone="no"?>
<!-- Created with Inkscape (http://www.inkscape.org/) -->
<svg
   xmlns:dc="http://purl.org/dc/elements/1.1/"
   xmlns:cc="http://creativecommons.org/ns#"
   xmlns:rdf="http://www.w3.org/1999/02/22-rdf-syntax-ns#"
   xmlns:svg="http://www.w3.org/2000/svg"
   xmlns="http://www.w3.org/2000/svg"
   xmlns:xlink="http://www.w3.org/1999/xlink"
   xmlns:sodipodi="http://sodipodi.sourceforge.net/DTD/sodipodi-0.dtd"
   xmlns:inkscape="http://www.inkscape.org/namespaces/inkscape"
   width="256"
   height="256"
   id="svg2"
   sodipodi:version="0.32"
   inkscape:version="0.46"
   version="1.0"
   sodipodi:docname="masgau_logo.svg"
   inkscape:output_extension="org.inkscape.output.svg.inkscape"
   inkscape:export-filename="C:\Users\SanMadJack\Documents\My Dropbox\Programs\Masgau\Graphics\masgau_splash.png"
   inkscape:export-xdpi="90"
   inkscape:export-ydpi="90">
  <defs
     id="defs4">
    <linearGradient
       id="linearGradient3318"
       inkscape:collect="always">
      <stop
         id="stop3320"
         offset="0"
         style="stop-color:#a40000;stop-opacity:1" />
      <stop
         id="stop3322"
         offset="1"
         style="stop-color:#ef2929;stop-opacity:1" />
    </linearGradient>
    <linearGradient
       inkscape:collect="always"
       id="linearGradient3287">
      <stop
         style="stop-color:#a40000;stop-opacity:1"
         offset="0"
         id="stop3289" />
      <stop
         style="stop-color:#cc0000;stop-opacity:1"
         offset="1"
         id="stop3291" />
    </linearGradient>
    <linearGradient
       id="linearGradient2500">
      <stop
         id="stop2502"
         offset="0"
         style="stop-color:#a40000;stop-opacity:1" />
      <stop
         style="stop-color:#a40000;stop-opacity:1"
         offset="0.93066585"
         id="stop2504" />
      <stop
         id="stop2506"
         offset="1"
         style="stop-color:#ef2929;stop-opacity:1" />
    </linearGradient>
    <linearGradient
       id="linearGradient3270">
      <stop
         style="stop-color:#ef2929;stop-opacity:1"
         offset="0"
         id="stop3272" />
      <stop
         id="stop3280"
         offset="0.5"
         style="stop-color:#c91414;stop-opacity:1;" />
      <stop
         style="stop-color:#a40000;stop-opacity:0"
         offset="1"
         id="stop3274" />
    </linearGradient>
    <linearGradient
       id="linearGradient2472">
      <stop
         style="stop-color:#c4a000;stop-opacity:1"
         offset="0"
         id="stop2474" />
      <stop
         id="stop3248"
         offset="0.67857146"
         style="stop-color:#edd400;stop-opacity:1" />
      <stop
         style="stop-color:#c4a000;stop-opacity:1"
         offset="1"
         id="stop2476" />
    </linearGradient>
    <linearGradient
       id="linearGradient3565">
      <stop
         style="stop-color:#edd400;stop-opacity:1"
         offset="0"
         id="stop3567" />
      <stop
         id="stop2470"
         offset="0.5"
         style="stop-color:#d8ba00;stop-opacity:1;" />
      <stop
         style="stop-color:#c4a000;stop-opacity:1"
         offset="1"
         id="stop3569" />
    </linearGradient>
    <linearGradient
       id="linearGradient3553">
      <stop
         style="stop-color:#c4a000;stop-opacity:1"
         offset="0"
         id="stop3555" />
      <stop
         id="stop3250"
         offset="0.5"
         style="stop-color:#edd400;stop-opacity:1" />
      <stop
         style="stop-color:#c4a000;stop-opacity:1"
         offset="1"
         id="stop3557" />
    </linearGradient>
    <linearGradient
       id="linearGradient3476">
      <stop
         style="stop-color:#ef2929;stop-opacity:1"
         offset="0"
         id="stop3478" />
      <stop
         id="stop3278"
         offset="0.5"
         style="stop-color:#c91414;stop-opacity:1;" />
      <stop
         style="stop-color:#a40000;stop-opacity:1"
         offset="1"
         id="stop3480" />
    </linearGradient>
    <linearGradient
       id="linearGradient3417">
      <stop
         id="stop3419"
         offset="0"
         style="stop-color:#edd400;stop-opacity:1" />
      <stop
         id="stop3421"
         offset="1.0000000"
         style="stop-color:#fce94f;stop-opacity:1" />
    </linearGradient>
    <linearGradient
       id="linearGradient3411">
      <stop
         id="stop3413"
         offset="0.0000000"
         style="stop-color:#fce94f;stop-opacity:1" />
      <stop
         id="stop3415"
         offset="1.0000000"
         style="stop-color:#c4a000;stop-opacity:1" />
    </linearGradient>
    <linearGradient
       id="linearGradient3405">
      <stop
         id="stop3407"
         offset="0.0000000"
         style="stop-color:#c4a000;stop-opacity:1" />
      <stop
         id="stop3409"
         offset="1.0000000"
         style="stop-color:#fce94f;stop-opacity:1" />
    </linearGradient>
    <linearGradient
       inkscape:collect="always"
       id="linearGradient3397">
      <stop
         style="stop-color:#edd400;stop-opacity:1"
         offset="0"
         id="stop3399" />
      <stop
         style="stop-color:#c4a000;stop-opacity:1"
         offset="1"
         id="stop3401" />
    </linearGradient>
    <inkscape:perspective
       sodipodi:type="inkscape:persp3d"
       inkscape:vp_x="0 : 526.18109 : 1"
       inkscape:vp_y="0 : 1000 : 0"
       inkscape:vp_z="744.09448 : 526.18109 : 1"
       inkscape:persp3d-origin="372.04724 : 350.78739 : 1"
       id="perspective10" />
    <radialGradient
       r="23.555494"
       fy="27.096155"
       fx="23.201941"
       cy="27.096155"
       cx="23.201941"
       gradientTransform="matrix(1.000000,0.000000,0.000000,0.651032,-8.174347e-16,9.455693)"
       gradientUnits="userSpaceOnUse"
       id="radialGradient1464"
       xlink:href="#linearGradient4264"
       inkscape:collect="always" />
    <linearGradient
       id="linearGradient4228">
      <stop
         style="stop-color:#edd400;stop-opacity:1"
         offset="0.0000000"
         id="stop4230" />
      <stop
         style="stop-color:#c4a000;stop-opacity:1"
         offset="1.0000000"
         id="stop4232" />
    </linearGradient>
    <linearGradient
       id="linearGradient4244">
      <stop
         style="stop-color:#fce94f;stop-opacity:1"
         offset="0.0000000"
         id="stop4246" />
      <stop
         style="stop-color:#edd400;stop-opacity:1"
         offset="1.0000000"
         id="stop4248" />
    </linearGradient>
    <linearGradient
       inkscape:collect="always"
       id="linearGradient4264">
      <stop
         style="stop-color:#000000;stop-opacity:1;"
         offset="0"
         id="stop4266" />
      <stop
         style="stop-color:#000000;stop-opacity:0;"
         offset="1"
         id="stop4268" />
    </linearGradient>
    <linearGradient
       id="linearGradient4990">
      <stop
         style="stop-color:#fce94f;stop-opacity:1"
         offset="0.0000000"
         id="stop4992" />
      <stop
         style="stop-color:#c4a000;stop-opacity:1"
         offset="1.0000000"
         id="stop4994" />
    </linearGradient>
    <linearGradient
       id="linearGradient5018">
      <stop
         style="stop-color:#c4a000;stop-opacity:1"
         offset="0"
         id="stop5020" />
      <stop
         style="stop-color:#edd400;stop-opacity:1"
         offset="1.0000000"
         id="stop5022" />
    </linearGradient>
    <linearGradient
       inkscape:collect="always"
       id="linearGradient5069">
      <stop
         style="stop-color:#000000;stop-opacity:1;"
         offset="0"
         id="stop5071" />
      <stop
         style="stop-color:#000000;stop-opacity:0;"
         offset="1"
         id="stop5073" />
    </linearGradient>
    <linearGradient
       inkscape:collect="always"
       id="linearGradient2510">
      <stop
         style="stop-color:#ffffff;stop-opacity:1;"
         offset="0"
         id="stop2512" />
      <stop
         style="stop-color:#ffffff;stop-opacity:0;"
         offset="1"
         id="stop2514" />
    </linearGradient>
    <linearGradient
       id="linearGradient5048">
      <stop
         id="stop5050"
         offset="0"
         style="stop-color:black;stop-opacity:0;" />
      <stop
         style="stop-color:black;stop-opacity:1;"
         offset="0.5"
         id="stop5056" />
      <stop
         id="stop5052"
         offset="1"
         style="stop-color:black;stop-opacity:0;" />
    </linearGradient>
    <inkscape:perspective
       id="perspective79"
       inkscape:persp3d-origin="24 : 16 : 1"
       inkscape:vp_z="48 : 24 : 1"
       inkscape:vp_y="0 : 1000 : 0"
       inkscape:vp_x="0 : 24 : 1"
       sodipodi:type="inkscape:persp3d" />
    <inkscape:perspective
       id="perspective2562"
       inkscape:persp3d-origin="372.04724 : 350.78739 : 1"
       inkscape:vp_z="744.09448 : 526.18109 : 1"
       inkscape:vp_y="0 : 1000 : 0"
       inkscape:vp_x="0 : 526.18109 : 1"
       sodipodi:type="inkscape:persp3d" />
    <inkscape:perspective
       id="perspective2575"
       inkscape:persp3d-origin="372.04724 : 350.78739 : 1"
       inkscape:vp_z="744.09448 : 526.18109 : 1"
       inkscape:vp_y="0 : 1000 : 0"
       inkscape:vp_x="0 : 526.18109 : 1"
       sodipodi:type="inkscape:persp3d" />
    <linearGradient
       inkscape:collect="always"
       xlink:href="#linearGradient3397"
       id="linearGradient3403"
       x1="143.94673"
       y1="11.543084"
       x2="66.670067"
       y2="299.43655"
       gradientUnits="userSpaceOnUse"
       gradientTransform="matrix(0.9295167,0,0,0.9295167,13.916071,4.0797171)" />
    <linearGradient
       inkscape:collect="always"
       xlink:href="#linearGradient4228"
       id="linearGradient3525"
       gradientUnits="userSpaceOnUse"
       gradientTransform="matrix(-2.1697376,2.1697376,-2.1697376,-2.1697376,222.57065,96.538639)"
       x1="7.6046205"
       y1="28.481176"
       x2="36.183067"
       y2="40.943935" />
    <radialGradient
       inkscape:collect="always"
       xlink:href="#linearGradient4244"
       id="radialGradient3527"
       gradientUnits="userSpaceOnUse"
       gradientTransform="matrix(-4.4868872,1.0947281,-0.9954105,-4.0798314,238.26048,102.01183)"
       cx="15.571491"
       cy="2.9585190"
       fx="15.571491"
       fy="2.9585190"
       r="20.935817" />
    <radialGradient
       inkscape:collect="always"
       xlink:href="#linearGradient5069"
       id="radialGradient3529"
       gradientUnits="userSpaceOnUse"
       gradientTransform="matrix(1,0,0,0.624277,0,12.28944)"
       cx="10.363534"
       cy="32.708817"
       fx="10.363534"
       fy="32.708817"
       r="3.8227961" />
    <linearGradient
       inkscape:collect="always"
       xlink:href="#linearGradient5018"
       id="linearGradient3531"
       gradientUnits="userSpaceOnUse"
       gradientTransform="matrix(-2.1697376,2.1697376,-2.1697376,-2.1697376,241.40498,115.37297)"
       x1="28.468750"
       y1="28.125000"
       x2="20.000000"
       y2="26.375000" />
    <linearGradient
       inkscape:collect="always"
       xlink:href="#linearGradient3417"
       id="linearGradient3533"
       gradientUnits="userSpaceOnUse"
       gradientTransform="matrix(-2.1697376,2.1697376,-2.1697376,-2.1697376,241.40498,115.37297)"
       x1="26.312500"
       y1="17.500000"
       x2="23.062500"
       y2="17.500000" />
    <radialGradient
       inkscape:collect="always"
       xlink:href="#linearGradient3405"
       id="radialGradient3535"
       gradientUnits="userSpaceOnUse"
       gradientTransform="matrix(2.3816208,8.6952572e-2,-0.126608,1.395133,-30.129227,-3.1735611)"
       cx="22.693991"
       cy="4.9365706"
       fx="22.693991"
       fy="4.9365706"
       r="6.6291261" />
    <linearGradient
       inkscape:collect="always"
       xlink:href="#linearGradient4990"
       id="linearGradient3537"
       gradientUnits="userSpaceOnUse"
       x1="23.599133"
       y1="3.4934268"
       x2="26.032751"
       y2="13.095204" />
    <linearGradient
       inkscape:collect="always"
       xlink:href="#linearGradient3411"
       id="linearGradient3539"
       gradientUnits="userSpaceOnUse"
       x1="24.395184"
       y1="11.509590"
       x2="17.766058"
       y2="-6.4607105" />
    <linearGradient
       inkscape:collect="always"
       xlink:href="#linearGradient2510"
       id="linearGradient3541"
       gradientUnits="userSpaceOnUse"
       gradientTransform="matrix(-2.1697376,2.1697376,-2.1697376,-2.1697376,240.04889,114.01688)"
       x1="21.057629"
       y1="2.4374962"
       x2="26.286110"
       y2="29.562496" />
    <linearGradient
       inkscape:collect="always"
       xlink:href="#linearGradient3553"
       id="linearGradient3559"
       x1="155"
       y1="146.35716"
       x2="167.85715"
       y2="158.85715"
       gradientUnits="userSpaceOnUse"
       gradientTransform="matrix(0.9295167,0,0,0.9295167,8.604545,3.4157766)" />
    <linearGradient
       inkscape:collect="always"
       xlink:href="#linearGradient2472"
       id="linearGradient3571"
       x1="66.46804"
       y1="210.03806"
       x2="96.166519"
       y2="239.73654"
       gradientUnits="userSpaceOnUse"
       gradientTransform="matrix(0.9295167,0,0,0.9295167,8.604545,3.4157766)" />
    <linearGradient
       inkscape:collect="always"
       xlink:href="#linearGradient2472"
       id="linearGradient3268"
       x1="119.5"
       y1="162"
       x2="161.5"
       y2="162"
       gradientUnits="userSpaceOnUse"
       gradientTransform="matrix(0.9471266,-3.4850674e-8,1.9068491e-8,0.518219,43.36576,37.584717)" />
    <linearGradient
       inkscape:collect="always"
       xlink:href="#linearGradient2472"
       id="linearGradient3272"
       gradientUnits="userSpaceOnUse"
       gradientTransform="matrix(0.9471266,-3.4850674e-8,1.9068491e-8,0.518219,49.144756,25.932036)"
       x1="119.5"
       y1="162"
       x2="161.5"
       y2="162" />
    <linearGradient
       inkscape:collect="always"
       xlink:href="#linearGradient2472"
       id="linearGradient3276"
       gradientUnits="userSpaceOnUse"
       gradientTransform="matrix(0.9471266,-3.4850674e-8,1.9068491e-8,0.518219,56.314554,13.184955)"
       x1="119.5"
       y1="162"
       x2="161.5"
       y2="162" />
    <linearGradient
       inkscape:collect="always"
       xlink:href="#linearGradient2472"
       id="linearGradient3280"
       gradientUnits="userSpaceOnUse"
       gradientTransform="matrix(0.9471266,-3.4850674e-8,1.9068491e-8,0.518219,63.424204,0.2134123)"
       x1="119.5"
       y1="162"
       x2="161.5"
       y2="162" />
    <linearGradient
       inkscape:collect="always"
       xlink:href="#linearGradient2472"
       id="linearGradient3284"
       gradientUnits="userSpaceOnUse"
       gradientTransform="matrix(0.9471266,-3.4850674e-8,1.9068491e-8,0.518219,70.177308,-10.497404)"
       x1="119.5"
       y1="162"
       x2="161.5"
       y2="162" />
    <linearGradient
       inkscape:collect="always"
       xlink:href="#linearGradient2472"
       id="linearGradient3288"
       gradientUnits="userSpaceOnUse"
       gradientTransform="matrix(0.9148542,0.2451344,-0.1341249,0.5005611,79.586644,-4.6278506)"
       x1="119.5"
       y1="162"
       x2="161.5"
       y2="162" />
    <linearGradient
       inkscape:collect="always"
       xlink:href="#linearGradient2472"
       id="linearGradient3293"
       gradientUnits="userSpaceOnUse"
       gradientTransform="matrix(0.9148542,0.2451344,-0.1341249,0.5005611,24.047533,57.812558)"
       x1="119.5"
       y1="162"
       x2="161.5"
       y2="162" />
    <radialGradient
       inkscape:collect="always"
       xlink:href="#linearGradient3270"
       id="radialGradient3276"
       cx="128"
       cy="128"
       fx="128"
       fy="128"
       r="128"
       gradientUnits="userSpaceOnUse" />
    <radialGradient
       inkscape:collect="always"
       xlink:href="#linearGradient2500"
       id="radialGradient3266"
       cx="61.871841"
       cy="87.708588"
       fx="61.871841"
       fy="87.708588"
       r="42.779961"
       gradientTransform="matrix(1,0,0,0.8595041,0,12.322699)"
       gradientUnits="userSpaceOnUse" />
    <radialGradient
       inkscape:collect="always"
       xlink:href="#linearGradient3476"
       id="radialGradient2498"
       gradientUnits="userSpaceOnUse"
       gradientTransform="matrix(1,0,0,0.8595041,0,12.322699)"
       cx="61.871841"
       cy="87.708588"
       fx="61.871841"
       fy="87.708588"
       r="42.779961" />
    <linearGradient
       inkscape:collect="always"
       xlink:href="#linearGradient3318"
       id="linearGradient3316"
       x1="-252.28484"
       y1="323.14392"
       x2="-4.9662476"
       y2="6.5951991"
       gradientUnits="userSpaceOnUse" />
    <linearGradient
       inkscape:collect="always"
       xlink:href="#linearGradient3287"
       id="linearGradient3324"
       x1="0"
       y1="0.23879872"
       x2="-257.25107"
       y2="329.50034"
       gradientUnits="userSpaceOnUse" />
    <linearGradient
       inkscape:collect="always"
       xlink:href="#linearGradient3287"
       id="linearGradient3340"
       gradientUnits="userSpaceOnUse"
       x1="0"
       y1="0.23879872"
       x2="-257.25107"
       y2="329.50034" />
    <linearGradient
       inkscape:collect="always"
       xlink:href="#linearGradient3318"
       id="linearGradient3342"
       gradientUnits="userSpaceOnUse"
       x1="-252.28484"
       y1="323.14392"
       x2="-4.9662476"
       y2="6.5951991" />
  </defs>
  <sodipodi:namedview
     id="base"
     pagecolor="#ffffff"
     bordercolor="#666666"
     borderopacity="1.0"
     gridtolerance="10000"
     guidetolerance="10"
     objecttolerance="10"
     inkscape:pageopacity="0.0"
     inkscape:pageshadow="2"
     inkscape:zoom="1.4238281"
     inkscape:cx="125.79638"
     inkscape:cy="86.780235"
     inkscape:document-units="px"
     inkscape:current-layer="layer1"
     showgrid="false"
     inkscape:window-width="1175"
     inkscape:window-height="919"
     inkscape:window-x="602"
     inkscape:window-y="64"
     showguides="true"
     inkscape:guide-bbox="true" />
  <metadata
     id="metadata7">
    <rdf:RDF>
      <cc:Work
         rdf:about="">
        <dc:format>image/svg+xml</dc:format>
        <dc:type
           rdf:resource="http://purl.org/dc/dcmitype/StillImage" />
      </cc:Work>
    </rdf:RDF>
  </metadata>
  <g
     inkscape:label="Layer 1"
     inkscape:groupmode="layer"
     id="layer1">
    <g
       id="g3296">
      <path
         transform="matrix(2.9920551,0,0,3.4811413,-57.12396,-177.32599)"
         d="M 104.6518,87.708588 A 42.779961,36.76955 0 1 1 19.091881,87.708588 A 42.779961,36.76955 0 1 1 104.6518,87.708588 z"
         sodipodi:ry="36.76955"
         sodipodi:rx="42.779961"
         sodipodi:cy="87.708588"
         sodipodi:cx="61.871841"
         id="path3282"
         style="opacity:1;fill:url(#radialGradient3266);fill-opacity:1;stroke:#c4a000;stroke-width:0;stroke-miterlimit:4;stroke-dasharray:none"
         sodipodi:type="arc" />
      <path
         transform="matrix(2.829532,0,0,3.2920519,-47.068357,-160.74123)"
         d="M 104.6518,87.708588 A 42.779961,36.76955 0 1 1 19.091881,87.708588 A 42.779961,36.76955 0 1 1 104.6518,87.708588 z"
         sodipodi:ry="36.76955"
         sodipodi:rx="42.779961"
         sodipodi:cy="87.708588"
         sodipodi:cx="61.871841"
         id="path2496"
         style="opacity:1;fill:url(#radialGradient2498);fill-opacity:1;stroke:#c4a000;stroke-width:0;stroke-miterlimit:4;stroke-dasharray:none"
         sodipodi:type="arc" />
    </g>
    <g
       id="g3336"
       transform="translate(0,-6)">
      <rect
         transform="scale(-1,1)"
         y="0.23879872"
         x="-257.25107"
         height="329.26154"
         width="257.25107"
         id="rect2506"
         style="opacity:1;fill:url(#linearGradient3340);fill-opacity:1;stroke:#c4a000;stroke-width:0;stroke-miterlimit:4;stroke-dasharray:none" />
      <rect
         transform="scale(-1,1)"
         y="6.5951991"
         x="-252.28484"
         height="316.54874"
         width="247.31859"
         id="rect3310"
         style="opacity:1;fill:url(#linearGradient3342);fill-opacity:1;stroke:#c4a000;stroke-width:0;stroke-miterlimit:4;stroke-dasharray:none" />
    </g>
    <path
       style="fill:url(#linearGradient3403);fill-opacity:1;fill-rule:evenodd;stroke:#c4a000;stroke-width:2.78855014;stroke-linecap:butt;stroke-linejoin:miter;stroke-miterlimit:4;stroke-dasharray:none;stroke-opacity:1"
       d="M 175.52172,64.610615 L 126.77376,16.332158 L 130.3173,12.788634 L 150.81912,13.54796 L 198.04839,60.307762 L 230.69941,114.21995 L 215.2598,129.65958 L 194.93964,119.46379 L 135.20595,179.19746 L 146.5285,190.98947 L 132.86061,204.65736 L 109.32148,204.65736 L 104.63899,209.33988 L 109.06839,213.76928 L 108.53733,220.17146 L 92.261461,236.44733 L 87.047905,236.95355 L 61.562037,211.46769 L 61.780416,207.05956 L 78.526012,190.31395 L 85.683076,191.07328 L 88.680569,194.21632 L 93.109975,189.61461 L 77.747933,173.35216 L 43.895476,137.62178 L 43.895476,121.43358 L 45.195553,119.18175 L 84.158986,160.02308 L 115.0287,160.02309 L 121.10808,166.10247 L 181.59632,105.61426 L 173.74994,97.767872 L 175.52172,64.610615 z"
       id="path2581"
       sodipodi:nodetypes="ccccccccccccccccccccccccccccccccc" />
    <path
       style="fill:url(#linearGradient3559);fill-opacity:1;fill-rule:evenodd;stroke:#000000;stroke-width:0;stroke-linecap:butt;stroke-linejoin:miter;stroke-miterlimit:4;stroke-dasharray:none;stroke-opacity:1"
       d="M 120.81049,169.33448 L 134.08929,182.28133 L 198.15955,119.53896 L 185.21269,105.92817 L 120.81049,169.33448 z"
       id="path3551" />
    <path
       style="fill:url(#linearGradient3571);fill-opacity:1;fill-rule:evenodd;stroke:#fce94f;stroke-width:0;stroke-linecap:butt;stroke-linejoin:miter;stroke-miterlimit:4;stroke-dasharray:none;stroke-opacity:1"
       d="M 108.1478,202.07524 L 101.58737,209.80935 L 106.25151,215.17772 L 106.18997,218.64565 L 90.735663,234.45207 L 88.104227,234.60618 L 63.914139,211.68827 C 63.914139,211.68827 63.559745,210.20642 63.78041,209.62753 C 66.062717,203.64016 79.000208,194.64247 79.000208,194.64247 C 79.000208,194.64247 82.766022,194.36841 84.161996,195.04967 C 87.544706,196.70055 89.150044,198.95803 89.150044,198.95803 L 96.959684,189.94324 L 108.1478,202.07524 z"
       id="path3563"
       sodipodi:nodetypes="ccccccccccccc" />
    <path
       style="fill:none;fill-opacity:1;fill-rule:evenodd;stroke:#fce94f;stroke-width:2.78855014;stroke-linecap:butt;stroke-linejoin:miter;stroke-miterlimit:4;stroke-dasharray:none;stroke-opacity:1"
       d="M 178.33857,63.554293 L 130.29483,16.097421 L 130.78677,15.605495 L 149.64542,15.895343 L 195.93575,61.950932 L 226.70886,114.21995 L 214.08611,126.84272 L 194.42322,116.41218 L 131.54404,179.3618 L 142.53794,190.98947 L 131.68693,202.30998 L 108.1478,202.07524 L 100.76579,209.48071 L 106.25151,215.17772 L 106.18997,218.64565 L 90.735663,234.45207 L 88.104227,234.60618 L 64.043422,210.28715 L 63.909695,208.39073 L 79.129492,193.24135 L 84.291278,193.64856 L 89.478678,197.97212 L 96.959684,189.61461 L 79.273732,171.35688 L 46.829705,136.56546 L 46.242858,128.00625 L 46.251876,124.11125 L 83.454769,162.48782 L 113.855,162.72258 L 121.03767,169.74093 L 185.35213,105.96636 L 176.56679,96.476811 L 178.33857,63.554293 z"
       id="path3543"
       sodipodi:nodetypes="ccccccccccccccccccccccccccccccccc" />
    <path
       style="fill:url(#linearGradient3293);fill-opacity:1;stroke:#c4a000;stroke-width:2.10175443;stroke-miterlimit:4"
       d="M 120.25277,168.25975 L 149.26599,175.99757 L 148.12592,180.25234 L 124.69951,173.82905 L 120.25277,168.25975 z"
       id="rect3291"
       sodipodi:nodetypes="ccccc" />
    <path
       style="fill:none;fill-rule:evenodd;stroke:#fce94f;stroke-width:2.78855014;stroke-linecap:butt;stroke-linejoin:miter;stroke-miterlimit:4;stroke-dasharray:none;stroke-opacity:1"
       d="M 114.73745,163.59008 L 134.91923,182.94527"
       id="path3545"
       sodipodi:nodetypes="cc" />
    <path
       style="fill:none;fill-rule:evenodd;stroke:#fce94f;stroke-width:2.78855014;stroke-linecap:butt;stroke-linejoin:miter;stroke-miterlimit:4;stroke-dasharray:none;stroke-opacity:1"
       d="M 94.833815,187.42686 L 109.44051,201.86758"
       id="path3547"
       sodipodi:nodetypes="cc" />
    <path
       style="fill:url(#linearGradient3288);fill-opacity:1;stroke:#c4a000;stroke-width:2.10175443;stroke-miterlimit:4"
       d="M 169.1258,103.99693 L 186.96544,108.77705 L 192.91294,114.4261 L 167.98573,108.25169 L 169.1258,103.99693 z"
       id="rect3286"
       sodipodi:nodetypes="ccccc" />
    <path
       style="fill:none;fill-rule:evenodd;stroke:#fce94f;stroke-width:2.78855014;stroke-linecap:butt;stroke-linejoin:miter;stroke-miterlimit:4;stroke-dasharray:none;stroke-opacity:1"
       d="M 184.91394,105.7788 L 198.26257,118.24109"
       id="path3549"
       sodipodi:nodetypes="cc" />
    <rect
       style="fill:url(#linearGradient3268);fill-opacity:1;stroke:#c4a000;stroke-width:2.10175443;stroke-miterlimit:4;stroke-dasharray:none"
       id="rect3252"
       width="36.937939"
       height="4.4048615"
       x="157.96803"
       y="119.33372"
       transform="matrix(0.9659258,0.258819,-0.258819,0.9659258,0,0)" />
    <rect
       style="fill:url(#linearGradient3272);fill-opacity:1;stroke:#c4a000;stroke-width:2.10175443;stroke-miterlimit:4;stroke-dasharray:none"
       id="rect3270"
       width="36.937939"
       height="4.4048615"
       x="163.74704"
       y="107.68105"
       transform="matrix(0.9659258,0.258819,-0.258819,0.9659258,0,0)" />
    <rect
       style="fill:url(#linearGradient3276);fill-opacity:1;stroke:#c4a000;stroke-width:2.10175443;stroke-miterlimit:4;stroke-dasharray:none"
       id="rect3274"
       width="36.937939"
       height="4.4048615"
       x="170.91681"
       y="94.933968"
       transform="matrix(0.9659258,0.258819,-0.258819,0.9659258,0,0)" />
    <rect
       style="fill:url(#linearGradient3280);fill-opacity:1;stroke:#c4a000;stroke-width:2.10175443;stroke-miterlimit:4;stroke-dasharray:none"
       id="rect3278"
       width="36.937939"
       height="4.4048615"
       x="178.02647"
       y="81.96241"
       transform="matrix(0.9659258,0.258819,-0.258819,0.9659258,0,0)" />
    <rect
       style="fill:url(#linearGradient3284);fill-opacity:1;stroke:#c4a000;stroke-width:2.10175443;stroke-miterlimit:4;stroke-dasharray:none"
       id="rect3282"
       width="36.937939"
       height="4.4048615"
       x="184.77956"
       y="71.251595"
       transform="matrix(0.9659258,0.258819,-0.258819,0.9659258,0,0)" />
    <g
       transform="matrix(1.0297695,0.2304411,0.2304411,1.0297695,-37.204239,-41.309053)"
       id="g3455">
      <path
         style="fill:none;fill-opacity:1;fill-rule:evenodd;stroke:#c4a000;stroke-width:6.13694477;stroke-linecap:round;stroke-linejoin:round;stroke-miterlimit:4;stroke-dasharray:none;stroke-opacity:1"
         d="M 172.12791,86.390924 C 173.484,85.034838 173.73584,83.52377 173.07716,81.780229 C 173.07716,81.780227 158.68136,47.992393 158.68136,47.992393 C 158.68136,47.992393 157.76668,45.992852 155.35895,43.585113 C 155.35895,43.585113 143.1,31.326165 143.1,31.326165 C 140.75101,28.977179 138.14695,29.227559 135.98055,31.39397 L 52.310044,115.06447 C 50.173172,117.20135 50.410287,120.08075 52.852479,122.52295 L 65.111427,134.78189 C 65.111427,134.78189 66.55313,136.68342 68.16262,137.42626 L 102.6963,151.48304 C 104.20738,152.19338 106.22213,152.24504 107.307,151.21183 L 172.12791,86.390924 z"
         id="path4196"
         sodipodi:nodetypes="cccsccccccccc" />
      <path
         style="fill:url(#linearGradient3525);fill-opacity:1;fill-rule:evenodd;stroke:none;stroke-width:1.02044296px;stroke-linecap:butt;stroke-linejoin:miter;stroke-opacity:1"
         d="M 156.89181,45.065473 L 156.73475,48.226384 L 74.995987,129.69393 L 66.795019,136.51799 L 52.825094,122.54807 C 50.382905,120.10588 50.14262,117.23145 52.279492,115.09458 L 135.99445,31.379623 C 138.16086,29.213217 140.77632,28.949975 143.1253,31.298961 L 156.89181,45.065473 z"
         id="path4170"
         sodipodi:nodetypes="ccccccccc" />
      <path
         style="fill:none;fill-opacity:1;fill-rule:evenodd;stroke:#c4a000;stroke-width:6.13694477;stroke-linecap:butt;stroke-linejoin:miter;marker:none;marker-start:none;marker-mid:none;marker-end:none;stroke-miterlimit:4;stroke-dasharray:none;stroke-dashoffset:0;stroke-opacity:1;visibility:visible;display:inline;overflow:visible;font-family:Bitstream Vera Sans"
         d="M 143.90239,124.45874 C 149.59721,118.76393 151.83894,111.95744 149.32674,108.72814 L 149.46235,108.59254 C 149.46235,108.59254 140.98681,94.557046 140.98681,94.557046 C 139.08829,91.709265 129.89946,92.49036 120.91673,101.47308 C 111.86591,110.52391 110.9495,119.98366 115.01776,122.289 C 115.01776,122.289 127.96838,130.0865 127.96838,130.0865 L 128.10399,129.95089 C 131.33151,132.4683 138.20517,130.15596 143.90239,124.45874 z"
         id="path5030" />
      <path
         style="fill:url(#radialGradient3527);fill-opacity:1;fill-rule:evenodd;stroke:none;stroke-width:1px;stroke-linecap:butt;stroke-linejoin:miter;stroke-opacity:1"
         d="M 158.64261,48.011762 C 157.0153,43.284833 153.45207,42.818554 151.20351,45.067118 C 151.20351,45.067118 66.583745,129.68688 66.583745,129.68688 C 64.207369,132.16658 64.775632,135.88613 68.133561,137.43594 L 102.68661,151.53147 C 104.19769,152.2418 106.25119,152.25472 107.33606,151.22152 L 172.11822,86.439352 C 173.47431,85.083266 173.70678,83.533451 173.0481,81.789911 C 173.0481,81.789911 158.64261,48.011762 158.64261,48.011762 z"
         id="path3093"
         sodipodi:nodetypes="csccccccs" />
      <path
         sodipodi:type="arc"
         style="fill:url(#radialGradient3529);fill-opacity:1;fill-rule:evenodd;stroke:none;stroke-width:2;stroke-linecap:butt;stroke-linejoin:miter;marker:none;marker-start:none;marker-mid:none;marker-end:none;stroke-miterlimit:4;stroke-dasharray:none;stroke-dashoffset:0;stroke-opacity:1;visibility:visible;display:inline;overflow:visible;font-family:Bitstream Vera Sans"
         id="path5067"
         sodipodi:cx="10.363534"
         sodipodi:cy="32.708817"
         sodipodi:rx="3.8227961"
         sodipodi:ry="2.3864853"
         d="M 14.18633,32.708817 A 3.8227961,2.3864853 0 1 1 6.5407379,32.708817 A 3.8227961,2.3864853 0 1 1 14.18633,32.708817 z"
         transform="matrix(-2.1697376,2.1697376,-2.1697376,-2.1697376,239.09,113.72921)" />
      <path
         style="fill:#ffffff;fill-opacity:1;fill-rule:evenodd;stroke:#fce94f;stroke-width:3.06847239px;stroke-linecap:butt;stroke-linejoin:miter;stroke-opacity:1"
         d="M 68.075118,135.60432 C 65.225176,133.03003 65.640715,132.20398 67.550524,130.17306 C 67.550524,130.17306 150.25814,47.465449 150.25814,47.465447 C 153.05543,44.668152 153.6938,45.703302 155.34155,46.41236 C 153.0935,44.562506 151.29306,43.040303 148.56303,45.770339 C 148.56303,45.770341 65.855417,128.47795 65.855417,128.47795 C 63.592519,130.88436 67.517624,134.83924 71.795062,137.3781 L 68.075118,135.60432 z"
         id="path4201"
         sodipodi:nodetypes="cccccccc" />
      <path
         sodipodi:nodetypes="cccsccccccccc"
         id="path4252"
         d="M 170.3706,86.182043 C 171.67611,84.876529 171.91856,83.421812 171.28445,81.743296 C 171.28445,81.743294 157.88477,49.184769 157.88477,49.184769 C 157.88477,49.184769 157.0042,47.259796 154.68626,44.941848 C 154.68626,44.941848 143.20814,33.463728 143.20814,33.463728 C 140.26871,30.524297 138.71471,30.897269 136.21858,33.393396 L 54.447887,115.16409 C 51.57705,118.03493 51.805322,119.17965 55.105699,122.48003 L 66.583819,133.95815 C 66.583819,133.95815 67.971759,135.78876 69.521227,136.5039 L 102.93339,149.98402 C 104.38811,150.66787 105.92091,150.582 106.96532,149.58732 L 170.3706,86.182043 z"
         style="fill:none;fill-opacity:1;fill-rule:evenodd;stroke:#fce94f;stroke-width:3.0684731;stroke-linecap:round;stroke-linejoin:round;stroke-miterlimit:4;stroke-dasharray:none;stroke-opacity:1" />
      <path
         sodipodi:type="arc"
         style="fill:#edd400;fill-opacity:0.48022593;fill-rule:evenodd;stroke:#fce94f;stroke-width:1px;stroke-linecap:butt;stroke-linejoin:miter;marker:none;marker-start:none;marker-mid:none;marker-end:none;stroke-miterlimit:4;stroke-dasharray:none;stroke-dashoffset:0;stroke-opacity:1;visibility:visible;display:inline;overflow:visible;font-family:Bitstream Vera Sans"
         id="path4341"
         sodipodi:cx="24.57196"
         sodipodi:cy="28.377787"
         sodipodi:rx="7.2478447"
         sodipodi:ry="3.7123106"
         d="M 31.819805,28.377787 A 7.2478447,3.7123106 0 1 1 17.324116,28.377787 A 7.2478447,3.7123106 0 1 1 31.819805,28.377787 z"
         transform="matrix(-3.4310082,3.4310082,-3.4310082,-3.4310082,307.03824,119.02246)" />
      <path
         transform="matrix(-1.852216,1.852216,-1.852216,-1.852216,225.88251,115.45481)"
         d="M 31.819805,28.377787 A 7.2478447,3.7123106 0 1 1 17.324116,28.377787 A 7.2478447,3.7123106 0 1 1 31.819805,28.377787 z"
         sodipodi:ry="3.7123106"
         sodipodi:rx="7.2478447"
         sodipodi:cy="28.377787"
         sodipodi:cx="24.57196"
         id="path4343"
         style="fill:#c9c9c9;fill-opacity:1;fill-rule:evenodd;stroke:none;stroke-width:1px;stroke-linecap:butt;stroke-linejoin:miter;marker:none;marker-start:none;marker-mid:none;marker-end:none;stroke-miterlimit:4;stroke-dasharray:none;stroke-dashoffset:0;stroke-opacity:1;visibility:visible;display:inline;overflow:visible;font-family:Bitstream Vera Sans"
         sodipodi:type="arc" />
      <path
         style="fill:none;fill-opacity:1;fill-rule:evenodd;stroke:#c4a000;stroke-width:6.13694477;stroke-linecap:butt;stroke-linejoin:miter;marker:none;marker-start:none;marker-mid:none;marker-end:none;stroke-miterlimit:4;stroke-dasharray:none;stroke-dashoffset:0;stroke-opacity:1;visibility:visible;display:inline;overflow:visible;font-family:Bitstream Vera Sans"
         d="M 183.83913,164.39547 C 191.7788,156.4558 191.7788,143.58612 183.83913,135.64645 C 178.18141,129.98873 170.05734,128.63023 162.9554,131.03576 L 144.58044,112.66079 C 144.58044,112.66079 144.50311,112.58347 144.44483,112.52519 C 142.67873,110.75909 138.46812,112.12829 135.02003,115.57638 C 131.57194,119.02447 130.20274,123.23508 131.96884,125.00118 L 132.10444,125.13679 L 150.41161,143.44395 C 147.94844,150.57294 149.40136,158.70674 155.0901,164.39547 C 163.02977,172.33515 175.89945,172.33515 183.83913,164.39547 z"
         id="path4659"
         sodipodi:nodetypes="ccccccccccc" />
      <path
         style="fill:url(#linearGradient3531);fill-opacity:1;fill-rule:evenodd;stroke:none;stroke-width:1px;stroke-linecap:butt;stroke-linejoin:miter;marker:none;marker-start:none;marker-mid:none;marker-end:none;stroke-miterlimit:4;stroke-dasharray:none;stroke-dashoffset:0;stroke-opacity:1;visibility:visible;display:inline;overflow:visible;font-family:Bitstream Vera Sans"
         d="M 127.96838,130.0865 C 127.96838,130.0865 115.01776,122.289 115.01776,122.289 C 110.9495,119.98366 111.86591,110.52391 120.91673,101.47308 C 129.89946,92.49036 139.08829,91.709265 140.98681,94.557046 C 140.98681,94.557046 149.46235,108.59254 149.46235,108.59254 L 127.96838,130.0865 z"
         id="path5026"
         sodipodi:nodetypes="cczccc" />
      <path
         sodipodi:type="arc"
         style="fill:#e4e4e4;fill-opacity:1;fill-rule:evenodd;stroke:none;stroke-width:1px;stroke-linecap:butt;stroke-linejoin:miter;marker:none;marker-start:none;marker-mid:none;marker-end:none;stroke-miterlimit:4;stroke-dasharray:none;stroke-dashoffset:0;stroke-opacity:1;visibility:visible;display:inline;overflow:visible;font-family:Bitstream Vera Sans"
         id="path4345"
         sodipodi:cx="24.57196"
         sodipodi:cy="28.377787"
         sodipodi:rx="7.2478447"
         sodipodi:ry="3.7123106"
         d="M 31.819805,28.377787 A 7.2478447,3.7123106 0 1 1 17.324116,28.377787 A 7.2478447,3.7123106 0 1 1 31.819805,28.377787 z"
         transform="matrix(-1.4817724,1.4817724,-1.4817724,-1.4817724,216.84512,124.62244)" />
      <path
         sodipodi:type="inkscape:offset"
         inkscape:radius="0"
         inkscape:original="M 24.5625 24.65625 C 20.56169 24.65625 17.3125 26.325805 17.3125 28.375 C 17.3125 30.424195 20.56169 32.093752 24.5625 32.09375 C 28.56331 32.09375 31.8125 30.424195 31.8125 28.375 C 31.8125 26.325805 28.56331 24.65625 24.5625 24.65625 z "
         xlink:href="#path4345"
         style="fill:#edd400;fill-opacity:1;fill-rule:evenodd;stroke:#fce94f;stroke-width:1.07779324px;stroke-linecap:butt;stroke-linejoin:miter;marker:none;marker-start:none;marker-mid:none;marker-end:none;stroke-miterlimit:4;stroke-dasharray:none;stroke-dashoffset:0;stroke-opacity:1;visibility:visible;display:inline;overflow:visible;font-family:Bitstream Vera Sans"
         id="path5419"
         inkscape:href="#path4345"
         d="M 24.5625,24.65625 C 20.56169,24.65625 17.3125,26.325805 17.3125,28.375 C 17.3125,30.424195 20.56169,32.093752 24.5625,32.09375 C 28.56331,32.09375 31.8125,30.424195 31.8125,28.375 C 31.8125,26.325805 28.56331,24.65625 24.5625,24.65625 z"
         transform="matrix(-1.3748217,1.3748217,-1.3748217,-1.3748217,211.18981,124.75053)" />
      <path
         style="fill:url(#linearGradient3533);fill-opacity:1;fill-rule:evenodd;stroke:none;stroke-width:1px;stroke-linecap:butt;stroke-linejoin:miter;marker:none;marker-start:none;marker-mid:none;marker-end:none;stroke-miterlimit:4;stroke-dasharray:none;stroke-dashoffset:0;stroke-opacity:1;visibility:visible;display:inline;overflow:visible;font-family:Bitstream Vera Sans"
         d="M 173.12605,153.6824 C 176.57414,150.2343 177.94333,146.0237 176.17724,144.2576 C 176.11895,144.19931 175.96956,144.3091 175.90602,144.2576 L 176.04163,144.12199 L 145.93652,114.01688 L 145.80091,114.15249 C 145.74941,114.08895 145.8592,113.93956 145.80091,113.88127 C 144.03482,112.11518 139.8242,113.48437 136.37612,116.93246 C 132.92802,120.38056 131.55883,124.59117 133.32492,126.35726 C 133.38321,126.41555 133.5326,126.30576 133.59614,126.35726 L 133.46053,126.49287 L 163.56564,156.59798 L 163.70125,156.46237 C 163.75275,156.52591 163.64296,156.6753 163.70125,156.73359 C 165.46734,158.49968 169.67796,157.13049 173.12605,153.6824 z"
         id="path4347" />
      <path
         sodipodi:type="arc"
         style="fill:url(#radialGradient3535);fill-opacity:1;fill-rule:evenodd;stroke:none;stroke-width:1.07542491;stroke-linecap:butt;stroke-linejoin:miter;marker:none;marker-start:none;marker-mid:none;marker-end:none;stroke-miterlimit:4;stroke-dasharray:none;stroke-dashoffset:0;stroke-opacity:1;visibility:visible;display:inline;overflow:visible;font-family:Bitstream Vera Sans"
         id="path4641"
         sodipodi:cx="24.395184"
         sodipodi:cy="8.4020205"
         sodipodi:rx="6.6291261"
         sodipodi:ry="6.6291261"
         d="M 31.02431,8.4020205 A 6.6291261,6.6291261 0 1 1 17.766057,8.4020205 A 6.6291261,6.6291261 0 1 1 31.02431,8.4020205 z"
         transform="matrix(-2.0993882,2.0993882,-2.0993882,-2.0993882,238.31512,116.48255)" />
      <g
         id="g5049"
         transform="matrix(-2.1697376,2.1697376,-1.8435392,-1.8435392,226.95483,104.44066)">
        <path
           sodipodi:type="arc"
           style="opacity:1;fill:url(#linearGradient3537);fill-opacity:1;fill-rule:evenodd;stroke:none;stroke-width:1.07542491;stroke-linecap:butt;stroke-linejoin:miter;marker:none;marker-start:none;marker-mid:none;marker-end:none;stroke-miterlimit:4;stroke-dasharray:none;stroke-dashoffset:0;stroke-opacity:1;visibility:visible;display:inline;overflow:visible;font-family:Bitstream Vera Sans"
           id="path5039"
           sodipodi:cx="24.395184"
           sodipodi:cy="8.4020205"
           sodipodi:rx="6.6291261"
           sodipodi:ry="6.6291261"
           d="M 31.02431,8.4020205 A 6.6291261,6.6291261 0 1 1 17.766057,8.4020205 A 6.6291261,6.6291261 0 1 1 31.02431,8.4020205 z"
           transform="matrix(0.510331,0,0,0.354752,-2.87767,29.41695)" />
        <path
           transform="matrix(0.430193,0,0,0.299045,-0.922674,29.60375)"
           d="M 31.02431,8.4020205 A 6.6291261,6.6291261 0 1 1 17.766057,8.4020205 A 6.6291261,6.6291261 0 1 1 31.02431,8.4020205 z"
           sodipodi:ry="6.6291261"
           sodipodi:rx="6.6291261"
           sodipodi:cy="8.4020205"
           sodipodi:cx="24.395184"
           id="path5045"
           style="opacity:1;fill:url(#linearGradient3539);fill-opacity:1;fill-rule:evenodd;stroke:none;stroke-width:1.07542491;stroke-linecap:butt;stroke-linejoin:miter;marker:none;marker-start:none;marker-mid:none;marker-end:none;stroke-miterlimit:4;stroke-dasharray:none;stroke-dashoffset:0;stroke-opacity:1;visibility:visible;display:inline;overflow:visible;font-family:Bitstream Vera Sans"
           sodipodi:type="arc" />
      </g>
      <path
         style="opacity:0.52571429;fill:none;fill-opacity:1;fill-rule:evenodd;stroke:url(#linearGradient3541);stroke-width:3.06847167px;stroke-linecap:butt;stroke-linejoin:miter;marker:none;marker-start:none;marker-mid:none;marker-end:none;stroke-miterlimit:4;stroke-dasharray:none;stroke-dashoffset:0;stroke-opacity:1;visibility:visible;display:inline;overflow:visible;font-family:Bitstream Vera Sans"
         d="M 182.25683,162.81806 C 189.38415,155.69074 189.32124,144.09082 182.19393,136.9635 C 177.17583,131.9454 169.34265,131.31586 163.02139,133.36391 L 147.56859,117.91111 C 148.59236,115.17153 149.97687,110.97593 148.62407,109.55848 C 148.62407,109.55848 140.16522,95.689671 140.16522,95.689671 C 138.40384,93.047601 129.87877,93.772274 121.54491,102.10613 C 113.14787,110.50317 112.29766,119.27959 116.07205,121.41841 L 129.24888,129.31111 C 130.76713,130.7601 134.32082,129.06421 137.29678,127.80548 L 152.93829,143.447 C 150.89025,149.76826 151.32127,157.79995 156.33937,162.81806 C 163.46669,169.94537 175.12952,169.94537 182.25683,162.81806 z"
         id="path2204"
         sodipodi:nodetypes="ccccccccccccc" />
    </g>
    <text
       xml:space="preserve"
       style="font-size:21.93367386px;font-style:normal;font-variant:normal;font-weight:bold;font-stretch:normal;text-align:center;line-height:125%;writing-mode:lr-tb;text-anchor:middle;fill:#fce94f;fill-opacity:1;stroke:none;stroke-width:1px;stroke-linecap:butt;stroke-linejoin:miter;stroke-opacity:1;font-family:Microstyle Bold Extended ATT;-inkscape-font-specification:Microstyle Bold Extended ATT Bold"
       x="127.37143"
       y="275.63962"
       id="text3300"
       sodipodi:linespacing="125%"><tspan
         sodipodi:role="line"
         id="tspan3302"
         x="127.37143"
         y="275.63962">SAVES OF THE</tspan><tspan
         sodipodi:role="line"
         x="127.37143"
         y="303.0567"
         id="tspan3326">SYSTEM, UNITE!</tspan></text>
    <text
       xml:space="preserve"
       style="font-size:4px;font-style:normal;font-weight:normal;fill:#000000;fill-opacity:1;stroke:none;stroke-width:1px;stroke-linecap:butt;stroke-linejoin:miter;stroke-opacity:1;font-family:Bitstream Vera Sans"
       x="153.8107"
       y="218.07407"
       id="text3332"><tspan
         sodipodi:role="line"
         id="tspan3334"
         x="153.8107"
         y="218.07407" /></text>
  </g>
</svg>
